<?xml version="1.0" encoding="UTF-8"?><svg id="Layer_1" xmlns="http://www.w3.org/2000/svg" viewBox="0 0 83.54 104.92"><defs><style>.cls-1{fill:#ff9100;}.cls-2{fill:#ffc400;}.cls-3{fill:#dd2c00;}</style></defs><path class="cls-1" d="M26.16,101.91c4.39,1.77,9.15,2.82,14.15,2.99,6.77.24,13.2-1.16,18.96-3.82-6.9-2.71-13.15-6.67-18.48-11.6-3.46,5.54-8.57,9.91-14.63,12.43Z"/><path class="cls-2" d="M40.79,89.47c-12.17-11.26-19.56-27.55-18.93-45.43.02-.58.05-1.16.09-1.74-2.18-.56-4.46-.91-6.8-.99-3.35-.12-6.6.3-9.67,1.16C2.23,48.17.27,54.7.03,61.7c-.63,18.06,10.3,33.83,26.14,40.21,6.06-2.53,11.17-6.89,14.63-12.43Z"/><path class="cls-1" d="M40.79,89.47c2.83-4.53,4.55-9.84,4.75-15.56.53-15.05-9.59-28-23.59-31.61-.04.58-.07,1.16-.09,1.74-.62,17.87,6.76,34.17,18.93,45.43Z"/><path class="cls-3" d="M43.97,0c-7.97,6.39-14.27,14.81-18.08,24.52-2.18,5.56-3.55,11.53-3.95,17.79,14,3.61,24.12,16.56,23.59,31.61-.2,5.72-1.92,11.03-4.75,15.56,5.33,4.93,11.58,8.89,18.48,11.6,13.85-6.4,23.67-20.18,24.24-36.47.37-10.56-3.69-19.96-9.42-27.91C68.04,28.3,43.97,0,43.97,0Z"/></svg>