<svg width="357" height="178" viewBox="0 0 357 178" fill="none" xmlns="http://www.w3.org/2000/svg">
<path d="M89.8 81.048L98.248 103H83.656L79.24 91.48L67.08 103H52.04L59.784 75.928H73.032L70.472 84.824L79.496 75.928H94.92L89.8 81.048ZM83.656 71.832L95.368 60.312H110.472L98.952 71.832H83.656ZM61.896 68.568L58.824 60.312H77.512L74.184 71.832H60.936L61.896 68.568ZM136.819 91.48L141.236 75.928H154.484L148.852 95.576C148.468 96.728 147.956 97.816 147.252 98.712C146.548 99.608 145.716 100.376 144.756 101.016C143.796 101.656 142.772 102.168 141.62 102.488C140.468 102.872 139.316 103 138.164 103H110.324C109.172 103 108.084 102.872 107.188 102.488C106.228 102.168 105.46 101.656 104.884 101.016C104.244 100.376 103.86 99.608 103.668 98.712C103.411 97.816 103.476 96.728 103.86 95.576L109.492 75.928H122.74L118.324 91.48H136.819ZM156.852 67.736L155.636 71.832H110.644L111.86 67.736C112.18 66.584 112.692 65.56 113.396 64.664C114.1 63.768 114.932 62.936 115.892 62.296C116.852 61.656 117.876 61.208 119.028 60.824C120.18 60.504 121.332 60.312 122.548 60.312H150.388C151.54 60.312 152.564 60.504 153.524 60.824C154.484 61.208 155.252 61.656 155.892 62.296C156.468 62.936 156.852 63.768 157.044 64.664C157.236 65.56 157.172 66.584 156.852 67.736ZM186.944 91.48L191.361 75.928H204.609L198.977 95.576C198.593 96.728 198.081 97.816 197.377 98.712C196.673 99.608 195.841 100.376 194.881 101.016C193.921 101.656 192.897 102.168 191.745 102.488C190.593 102.872 189.441 103 188.289 103H160.449C159.297 103 158.209 102.872 157.312 102.488C156.353 102.168 155.585 101.656 155.009 101.016C154.369 100.376 153.985 99.608 153.793 98.712C153.536 97.816 153.601 96.728 153.985 95.576L159.617 75.928H172.865L168.449 91.48H186.944ZM206.977 67.736L205.761 71.832H160.769L161.985 67.736C162.305 66.584 162.817 65.56 163.521 64.664C164.225 63.768 165.057 62.936 166.017 62.296C166.977 61.656 168.001 61.208 169.153 60.824C170.305 60.504 171.457 60.312 172.673 60.312H200.513C201.665 60.312 202.689 60.504 203.649 60.824C204.609 61.208 205.377 61.656 206.017 62.296C206.593 62.936 206.977 63.768 207.169 64.664C207.361 65.56 207.297 66.584 206.977 67.736ZM238.655 75.928L242.431 83.352H242.879L244.991 75.928H258.239L250.495 103H236.351L224.703 80.024H224.255L217.663 103H204.415L212.159 75.928H238.655ZM214.271 68.568L211.199 60.312H230.719L236.543 71.832H213.311L214.271 68.568ZM246.143 71.832L249.471 60.312H262.719L259.391 71.832H246.143ZM249.03 110.68L273.991 75.928H288.455L281.671 85.4H292.423L291.143 75.928H305.479L309.511 103H294.855L294.023 96.984H273.415L269.191 103H283.207L252.23 132.824L266.119 110.68H249.03ZM276.231 60.312H303.175L304.839 71.832H276.935L279.303 68.568L276.231 60.312Z" fill="#FB2C36"/>
</svg>
