<?xml version="1.0" encoding="utf-8"?><!-- Uploaded to: SVG Repo, www.svgrepo.com, Generator: SVG Repo Mixer Tools -->
<svg fill="#000000" width="800px" height="800px" viewBox="0 0 24 24" id="web-cam" data-name="Flat Color" xmlns="http://www.w3.org/2000/svg" class="icon flat-color"><path id="secondary" d="M16.89,18.55,15.62,16a1,1,0,0,0-1.29-.47,6.07,6.07,0,0,1-4.66,0A1,1,0,0,0,8.38,16L7.11,18.55A1,1,0,0,0,7,19v2a1,1,0,0,0,1,1h8a1,1,0,0,0,1-1V19A1,1,0,0,0,16.89,18.55Z" style="fill: rgb(44, 169, 188);"></path><circle id="primary" cx="12" cy="10" r="8" style="fill: rgb(0, 0, 0);"></circle><circle id="secondary-2" data-name="secondary" cx="12" cy="10" r="3" style="fill: rgb(44, 169, 188);"></circle></svg>