<svg width="376" height="249" viewBox="0 0 376 249" fill="none" xmlns="http://www.w3.org/2000/svg">
<rect width="376" height="249" fill="#111114"/>
<path d="M81.772 149H57.76L71.796 99.932H95.808L93.488 108.168H127.012L129.332 99.932H153.344L148.936 115.592C148.24 117.68 147.312 119.652 146.036 121.276C144.644 122.9 143.136 124.292 141.396 125.452C139.656 126.612 137.8 127.54 135.712 128.12C133.624 128.816 131.536 129.048 129.448 129.048H87.456L81.772 149ZM73.884 92.508L75.624 86.592L70.056 71.628H145.92C148.008 71.628 149.864 71.976 151.604 72.556C153.344 73.252 154.736 74.064 155.896 75.224C156.94 76.384 157.636 77.892 157.984 79.516C158.332 81.14 158.216 82.996 157.636 85.084L155.432 92.508H73.884ZM164.127 128.12H188.139L182.107 149H158.095L164.127 128.12ZM262.234 99.932L264.206 106.428L269.774 99.932H315.014L300.978 149H276.966L288.45 108.98L253.534 149H250.634L238.686 108.98L227.202 149H203.19L217.226 99.932H262.234ZM221.054 86.592L215.486 71.628H254.114L260.146 92.508H219.314L221.054 86.592ZM276.27 92.508L294.366 71.628H323.134L317.102 92.508H276.27Z" fill="#DEDDDB"/>
<rect x="51" y="125" width="264" height="24" fill="url(#paint0_linear_1688_6579)"/>
<rect x="138.541" y="53.6423" width="120" height="68" transform="rotate(99.8582 138.541 53.6423)" fill="url(#paint1_linear_1688_6579)"/>
<rect x="284.741" y="59.5997" width="120" height="68" transform="rotate(105 284.741 59.5997)" fill="url(#paint2_linear_1688_6579)"/>
<defs>
<linearGradient id="paint0_linear_1688_6579" x1="183" y1="125" x2="183" y2="149" gradientUnits="userSpaceOnUse">
<stop stop-opacity="0"/>
<stop offset="1" stop-color="#171717"/>
</linearGradient>
<linearGradient id="paint1_linear_1688_6579" x1="198.541" y1="53.6423" x2="198.541" y2="121.642" gradientUnits="userSpaceOnUse">
<stop stop-opacity="0"/>
<stop offset="1" stop-color="#171717"/>
</linearGradient>
<linearGradient id="paint2_linear_1688_6579" x1="344.741" y1="59.5997" x2="344.741" y2="127.6" gradientUnits="userSpaceOnUse">
<stop stop-opacity="0"/>
<stop offset="1" stop-color="#171717"/>
</linearGradient>
</defs>
</svg>
